<svg width="91" height="155" viewBox="0 0 91 155" fill="none" xmlns="http://www.w3.org/2000/svg">
<path d="M43.5717 0.0502847C55.3268 -0.506628 66.8296 3.58011 75.5985 11.4286C84.6903 19.5109 90.1864 30.8828 90.8712 43.0285C91.0798 46.3093 90.9726 50.2879 90.9714 53.6198V71.2486L90.9738 94.7437L90.9797 104.463C90.9797 110.282 90.7922 115.661 89.1563 121.307C87.2634 127.835 83.8612 133.896 79.3717 138.976C73.8111 145.242 66.6153 149.836 58.5906 152.243C54.4025 153.545 51.833 153.847 47.4309 154.115C47.352 154.121 47.2729 154.125 47.194 154.129C35.5136 154.756 23.8507 150.348 15.1878 142.56C6.21865 134.521 0.80534 123.252 0.136102 111.226C-0.0673326 107.365 0.0415756 102.935 0.041222 99.0257L0.039571 78.4415L0.0439305 58.0039C0.0418089 53.3063 -0.085718 48.4071 0.103809 43.7259C0.530009 33.1957 4.58704 23.0105 11.6381 15.1667C16.4285 9.81434 22.396 5.64699 29.0707 2.9929C33.9814 1.08101 38.3352 0.328918 43.5717 0.0502847ZM3.75256 93.4259L3.75892 104.723C3.75786 107.363 3.67795 109.988 3.95847 112.619C4.97647 122.165 8.5169 129.474 14.6261 136.779C21.1494 143.14 25.1378 145.981 33.8595 148.832C33.7408 146.919 33.8598 144.591 33.9528 142.659C34.6587 127.976 40.4076 113.985 50.2298 103.047C51.9478 101.102 57.8941 95.2587 60.0045 94.1803C60.0117 93.3729 60.1788 89.3819 59.8337 88.96C53.7824 93.0004 37.1194 94.6482 29.848 94.6435C22.5164 94.6388 11.4985 95.0749 4.42215 93.5992C4.19656 93.5509 3.9732 93.4931 3.75256 93.4259ZM32.6614 5.71347L32.6071 5.84689C32.0918 7.09543 31.349 8.27479 30.7638 9.50023C29.3177 12.5142 28.4093 15.1855 27.6657 18.419C26.3343 24.2093 26.1132 30.2382 28.3951 35.8454C29.6283 38.8759 32.7738 41.6103 33.8998 44.7567C35.3217 48.7293 35.3121 53.6336 33.8085 57.5964C32.3502 61.1751 30.1041 64.6836 28.6081 68.2857C27.9824 69.792 27.6523 71.6128 27.1045 73.1745C27.9544 73.1863 28.8377 73.1873 29.6845 73.216C31.8132 73.3337 36.71 73.5373 38.6711 73.9306C38.7657 69.026 40.6144 64.262 42.9067 60.0049C44.7411 56.5984 46.6203 53.9394 46.8916 50.022C47.41 42.5406 43.0214 40.5231 40.6204 35.2249C36.54 26.2206 39.2707 12.0033 44.1865 3.75349L42.5431 3.81537C39.449 4.1336 35.5762 4.69912 32.6614 5.71347ZM75.8222 82.109C76.1067 81.1687 72.8214 67.5705 72.1196 66.2457C70.5116 63.2103 57.2349 57.0201 53.518 55.9282C52.2358 55.5515 50.9231 55.2563 49.6243 54.9417C49.4631 56.0844 54.3101 63.522 55.2647 64.7947C59.3336 70.2788 64.357 74.985 70.0943 78.6882C71.7094 79.7498 74.6623 81.1898 75.8222 82.109ZM86.9699 108.128C85.9056 108.331 83.8158 108.714 82.8461 109.088C79.582 110.348 74.5948 113.16 72.1281 115.628C71.0852 116.672 68.8249 119.888 67.7798 121.2C66.2702 123.095 64.35 125.225 62.9512 127.072L62.928 127.273C63.1294 127.309 63.1359 127.331 63.3191 127.253C69.9086 125.945 76.6503 125.577 83.3429 126.163L83.3763 126.05C83.7273 124.892 84.5599 123.616 84.8863 122.523C86.3063 117.77 87.2728 113.241 87.2245 108.246C87.0606 108.107 87.1502 108.127 86.9699 108.128ZM42.4172 74.1871C43.9315 74.2446 46.4799 74.7784 48.2016 75.1626C52.5447 76.1317 62.4039 77.8952 63.5687 83.077C63.9086 84.5889 63.7579 89.9486 63.7107 91.6085C65.1839 90.4958 66.274 90.1544 67.6076 89.2293C69.2754 88.328 71.0694 87.5055 72.7654 86.6429C73.4679 86.2857 74.3682 86.2929 74.8976 85.9093C74.7819 85.4145 72.933 84.6551 72.4226 84.3847C71.132 83.6989 69.8661 82.9673 68.6274 82.1915C62.5095 78.3314 57.1298 73.4103 52.7412 67.6597C51.084 65.4778 49.5329 63.25 48.2681 60.8089C48.0441 60.3767 47.742 59.8083 47.3928 59.4761C46.8196 60.4526 46.4414 61.3559 45.9335 62.3351C43.928 66.2011 42.515 69.7875 42.4172 74.1871ZM50.6849 51.3719C55.6273 52.1169 65.6998 56.6329 69.7137 59.6713C69.7327 59.5662 69.7561 59.4373 69.7836 59.2846C68.9204 56.2156 65.367 48.4929 63.9485 45.9822C62.8426 44.0248 52.0911 39.714 49.6028 38.9583C48.8761 38.7376 47.8195 38.2825 47.0492 38.0948C47.0136 38.0896 46.9781 38.0844 46.9426 38.0792C47.0089 38.6187 47.9015 39.3151 48.2701 39.924C50.3203 43.3118 51.1594 47.4604 50.6849 51.3719ZM44.4139 12.7482C43.7779 14.8333 43.1179 16.9873 42.7298 19.1318C43.6718 19.4662 44.5441 19.9991 45.4176 20.4904C50.0208 23.0941 54.1603 26.4431 57.6676 30.4012C59.2695 32.1909 60.6546 34.1936 62.0947 35.8108C62.3171 36.1429 62.301 36.2518 62.617 36.3408C62.7733 36.0156 62.693 33.3588 62.6992 32.7383C62.727 30.8597 62.7882 28.9818 62.8829 27.1054C62.9219 26.3734 63.1871 24.1981 63.0745 23.6379C62.4991 23.0216 61.7914 22.62 61.1605 22.0709C58.717 19.9441 56.0465 18.3072 53.2344 16.7298C50.3494 15.1114 47.4521 14.0428 44.4139 12.7482ZM39.8057 150.026C42.7585 150.457 45.7493 150.566 48.7256 150.352C50.5512 150.117 54.3604 149.628 56.0723 149.16C65.0181 146.71 72.8468 141.502 78.5257 134.154C79.4667 132.937 80.7941 131.067 81.4171 129.717C78.7562 129.573 75.3674 129.547 72.6974 129.698C68.0416 130.108 62.185 131 57.9352 132.977C56.7561 133.525 53.6444 137.313 52.4081 138.436C48.474 142.012 44.1506 147.072 39.8057 150.026ZM73.6323 52.8913C74.2472 51.0682 74.9069 49.2687 75.5261 47.4296C75.9411 46.1971 76.9003 44.6505 77.0643 43.328C77.1203 42.8764 76.6931 41.9249 76.4922 41.515C74.2494 36.9389 71.5036 32.6664 68.1698 28.8037C67.9188 28.5128 66.9103 27.3629 66.6204 27.19C66.3535 31.9865 66.3077 36.0918 66.8397 40.8967C67.2123 44.2608 67.0502 43.8418 68.6156 46.8637C69.2156 48.0451 69.7887 49.24 70.3343 50.4474C70.9087 51.7141 72.0489 54.8792 72.6511 55.8303L72.8117 55.9141C73.0815 55.4312 73.2926 53.7929 73.6323 52.8913ZM86.9534 92.1058C86.2851 93.3045 78.3013 107.084 78.2772 106.898L78.4095 106.966C81.7401 105.564 83.4734 104.567 87.2186 104.386C87.2186 102.546 87.4543 93.4424 87.1219 92.2049L86.9534 92.1058ZM79.0319 48.7337C78.6112 50.0358 77.826 51.7819 77.5099 53.0316C76.6058 56.6069 75.3457 60.3985 75.4109 64.0917C75.44 64.8902 76.4153 67.2217 76.657 68.1461C76.9785 69.3751 77.2083 70.6208 77.5139 71.8268C78.197 74.5218 79.0004 76.9084 79.2912 79.6807L79.579 81.2876C82.7537 72.3957 82.4865 58.0568 79.2377 48.9576C79.2016 48.8569 79.1164 48.7924 79.0319 48.7337ZM71.6426 91.1848C72.3965 96.3773 72.634 102.329 72.662 107.579L72.6894 107.929L72.8025 108.001C74.6135 105.522 85.3594 88.6456 85.4117 86.537L85.3379 86.4236C80.3364 87.6995 76.3621 89.2068 71.6426 91.1848ZM42.4383 23.0144C42.4592 26.7405 42.3674 29.7174 43.8809 33.2583C48.3873 34.5292 52.6531 35.8875 56.9419 37.7512C57.4703 37.9808 59.1549 38.8833 59.5551 38.9547C59.1094 38.0317 58.1421 36.8006 57.498 35.9668C53.9683 31.3472 49.6256 27.4101 44.6833 24.3485C44.1645 24.0227 42.9555 23.2263 42.4383 23.0144ZM68.0743 93.0888C66.9148 93.9104 65.9415 94.4525 64.7946 95.2116C63.1392 96.3042 61.5358 97.4746 59.9894 98.7169C58.5371 99.8661 56.6873 101.836 55.5394 102.704C56.5321 105.525 56.8139 108.819 57.1956 111.776C57.6976 115.665 58.4617 120.628 58.4602 124.493L58.5285 126.376C59.4773 125.155 60.7587 123.788 61.7898 122.562C63.4514 120.567 65.0759 118.541 66.6621 116.485C67.0627 115.972 68.6946 113.966 68.9475 113.535C68.9717 111.008 68.8958 94.3618 68.0743 93.0888ZM83.2908 82.2047L83.1466 82.9803L83.2826 83.0968C84.6 82.9128 85.8714 82.5215 87.1974 82.2759L87.2009 57.977L87.2186 48.6701C87.2233 46.6353 87.281 44.4455 87.1196 42.4311C86.3063 32.4283 81.9887 23.0335 74.9267 15.9028C69.7881 10.7362 63.2047 6.96236 56.1504 5.03103C54.0761 4.46303 50.7067 4.14185 48.5043 3.76975C47.8968 4.70195 47.3881 5.48398 46.9165 6.49137C46.4745 7.43571 46.1413 8.51158 45.5666 9.36257C59.7613 13.8294 71.9414 24.5681 78.8048 37.6996C84.5235 48.74 86.7542 61.2569 85.2016 73.5933C84.7583 76.88 84.0085 79.1178 83.2908 82.2047ZM7.33141 28.953C5.80164 31.2836 4.03437 39.1276 3.93018 41.9161C3.52885 52.6668 3.8861 63.6497 3.74878 74.4104C5.03846 74.1341 6.1959 74.0415 7.5174 74.0212C7.57021 73.2448 7.71094 71.0508 7.92639 70.334C9.94448 60.5462 20.1767 53.3938 13.2548 43.076C12.311 41.669 11.0565 40.2298 10.188 38.8017C9.14877 37.0933 8.23072 34.5928 7.7727 32.6251C7.58989 31.84 7.78755 29.4498 7.33141 28.953ZM52.3395 106.279C51.1127 107.274 49.4742 109.717 48.5264 111.061C42.3967 119.752 38.6289 130.062 37.8009 140.671C37.6248 142.926 37.5003 145.152 37.4753 147.433C37.9347 146.961 38.4021 146.49 38.8417 146C40.1672 145.012 41.7624 143.464 43.0088 142.306C45.6024 139.885 48.1523 137.417 50.657 134.904C51.9558 133.587 53.2532 131.872 54.7142 130.804C54.7245 123.783 54.5252 116.995 53.1641 110.063C52.9335 108.887 52.7943 107.493 52.4799 106.359L52.3395 106.279ZM11.3471 73.7058C14.5455 73.2819 20.1637 73.0541 23.4612 73.1886C24.0484 69.688 24.9309 66.9913 26.5276 63.8992C29.6839 57.7792 33.2732 52.2525 29.9297 45.2935C28.5385 42.398 25.4228 39.3183 24.4711 36.351C21.7727 27.9377 23.0136 18.2759 26.3474 10.2113C26.58 9.64898 27.3487 8.27986 27.1865 7.87853C26.209 8.50262 25.2218 8.94945 24.2113 9.55869C20.1693 11.9775 16.5631 15.0296 13.559 18.6601C12.8271 19.5448 11.3979 21.057 11.2739 22.1426C10.686 27.29 11.006 33.3773 14.058 37.7711C15.1487 39.3412 16.2887 40.8633 17.3099 42.4753C19.0662 45.6972 19.8059 50.2506 19.0135 53.8316C17.5733 60.34 12.3897 65.4177 11.4638 72.1172C11.4041 72.5485 11.0914 73.3515 11.3471 73.7058ZM19.4472 76.8992C14.8988 77.0748 10.4574 77.416 5.9485 78.0035C5.17849 78.104 4.52646 78.1744 3.75314 78.0554L3.75079 89.7731C15.289 91.087 26.6375 91.5531 38.2072 90.3291C39.8051 90.1601 41.8832 90.2268 43.3459 89.8378C46.337 89.4526 59.7599 87.0624 59.8907 83.7227C59.4955 82.7695 56.7094 81.3512 55.636 80.9849C45.3727 77.4823 34.0597 76.963 23.2843 76.8335C22.0111 76.8183 20.6614 76.8262 19.4472 76.8992Z" fill="#D4A373"/>
</svg>
